# xmcd CD database file
# Copyright (C) 1993-1998 Ti Kan
#
# Track frame offsets:
#	180
#	12304
#	26347
#	38494
#	52745
#	64674
#	74709
#	91300
#	111464
#	125347
#	142294
#
# Disc length: 2080 seconds
#
# Revision: 0
# Processed by: cddbd v1.4b41PL1 Copyright (c) Steve Scherf et al.
# Submitted via: CDmax 1.5
#
DISCID=97081e0b
DTITLE=CRIPPLE CREEK BAND - JUDGEMENT DAY
DYEAR=1900
DGENRE=
TTITLE0=BATON ROUGE
TTITLE1=AMARILLO BY MORNING
TTITLE2=J'AI VU LE LOUP
TTITLE3=TROUBLE
TTITLE4=JUDGEMEND DAY
TTITLE5=IRISH COFFEE
TTITLE6=TIL THE TWILIGHT IS GONE
TTITLE7=COPPERHEAD ROAD
TTITLE8=TWO-BIT FIDDLER
TTITLE9=GOD BLESSED TEXAS
TTITLE10=CAROLAN'S FAREWELL
EXTD=
EXTT0=
EXTT1=
EXTT2=
EXTT3=
EXTT4=
EXTT5=
EXTT6=
EXTT7=
EXTT8=
EXTT9=
EXTT10=
PLAYORDER=
